<?xml version="1.0" standalone="no"?>
<!DOCTYPE svg PUBLIC "-//W3C//DTD SVG 20010904//EN"
 "http://www.w3.org/TR/2001/REC-SVG-20010904/DTD/svg10.dtd">
<svg version="1.0" xmlns="http://www.w3.org/2000/svg"
 width="64" height="64" viewBox="0 0 64 64"
 preserveAspectRatio="xMidYMid meet">

<g transform="translate(0.000000,62.000000) scale(0.021,-0.021)"
fill="#000000" stroke="none">
<path d="M1922 2843 c-36 -14 -857 -221 -863 -217 -4 2 -10 49 -14 104 -4 55
-10 102 -14 105 -4 2 -137 -153 -296 -345 -159 -193 -292 -350 -296 -350 -4 0
-39 36 -78 80 -41 46 -73 75 -75 68 -2 -7 -16 -213 -31 -458 -15 -245 -29
-447 -31 -449 -2 -2 -49 6 -105 18 -55 13 -103 20 -106 18 -2 -3 104 -177 236
-386 133 -209 241 -385 241 -389 0 -5 -45 -28 -101 -52 -61 -27 -95 -46 -87
-51 7 -4 197 -80 423 -169 226 -89 413 -165 417 -169 3 -3 -18 -46 -47 -96
-30 -50 -54 -94 -55 -98 0 -5 10 -5 23 -1 74 23 862 222 868 218 4 -2 10 -49
14 -104 4 -55 10 -102 14 -105 4 -2 137 153 296 345 159 193 292 350 296 350
4 0 39 -36 78 -80 41 -46 73 -75 75 -68 2 7 16 213 31 458 15 245 29 447 31
449 2 2 49 -6 105 -18 55 -13 103 -20 106 -18 2 3 -104 177 -236 386 -133 209
-241 385 -241 389 0 5 45 28 101 52 61 27 95 46 87 51 -7 4 -197 80 -423 169
-225 89 -413 165 -417 169 -3 3 18 47 47 96 65 107 66 114 27 98z m-361 -312
c21 -22 29 -39 29 -66 0 -27 -8 -44 -29 -66 -22 -21 -39 -29 -66 -29 -27 0
-44 8 -66 29 -21 22 -29 39 -29 66 0 27 8 44 29 66 22 21 39 29 66 29 27 0 44
-8 66 -29z m-728 -311 c36 -40 35 -80 -2 -122 -59 -66 -161 -29 -161 58 0 45
13 70 48 89 37 21 81 11 115 -25z m1437 25 c36 -19 50 -43 50 -89 0 -53 -37
-91 -90 -91 -35 0 -47 6 -71 33 -35 39 -37 79 -8 116 36 45 73 55 119 31z
m-607 -71 c195 -44 384 -179 486 -348 207 -343 117 -792 -204 -1021 -136 -97
-284 -145 -450 -145 -426 0 -765 339 -765 765 0 355 240 662 585 746 91 23
254 24 348 3z m-1160 -665 c65 -30 65 -138 0 -168 -56 -26 -110 -6 -133 48
-34 83 50 158 133 120z m2092 -13 c32 -32 40 -69 25 -107 -40 -97 -182 -69
-182 36 0 82 100 128 157 71z m-1762 -746 c34 -38 35 -79 2 -118 -32 -39 -74
-48 -114 -28 -37 20 -51 44 -51 88 0 91 100 127 163 58z m1465 4 c24 -27 30
-81 12 -115 -16 -29 -67 -51 -100 -44 -38 8 -80 58 -80 94 0 32 32 78 64 92
32 13 79 2 104 -27z m-737 -303 c21 -22 29 -39 29 -66 0 -51 -44 -95 -95 -95
-51 0 -95 44 -95 95 0 51 44 95 95 95 27 0 44 -8 66 -29z"/>
<path d="M1400 2014 c-240 -47 -436 -237 -485 -469 -63 -299 110 -587 415
-691 77 -26 253 -26 330 0 108 37 173 77 251 155 237 238 237 594 0 832 -116
116 -233 168 -391 174 -52 2 -106 1 -120 -1z m302 -162 c169 -83 268 -241 268
-427 0 -186 -99 -344 -268 -428 l-85 -42 -122 0 -122 0 -85 42 c-169 84 -268
242 -268 428 0 211 136 393 344 461 26 9 80 13 147 11 102 -2 109 -4 191 -45z"/>
</g>
</svg>
