<?xml version="1.0" standalone="no"?>
<!DOCTYPE svg PUBLIC "-//W3C//DTD SVG 20010904//EN"
 "http://www.w3.org/TR/2001/REC-SVG-20010904/DTD/svg10.dtd">
<svg version="1.0" xmlns="http://www.w3.org/2000/svg"
 width="64.000000pt" height="64.000000pt" viewBox="0 0 64.000000 64.000000"
 preserveAspectRatio="xMidYMid meet">

<g transform="translate(0.000000,64.000000) scale(0.100000,-0.100000)"
fill="#000000" stroke="none">
<path d="M249 556 c-50 -18 -109 -55 -109 -69 0 -9 62 -121 74 -135 3 -3 126
205 126 213 0 9 -54 4 -91 -9z"/>
<path d="M364 543 c-6 -10 -23 -39 -38 -65 l-28 -48 122 0 122 0 -20 33 c-19
30 -113 97 -137 97 -5 0 -15 -8 -21 -17z"/>
<path d="M101 437 c-18 -22 -34 -112 -27 -151 l7 -36 79 0 79 0 -60 100 c-33
55 -62 100 -63 100 -2 0 -8 -6 -15 -13z"/>
<path d="M400 395 c0 -3 28 -53 62 -111 l61 -106 19 37 c24 46 33 122 19 158
-10 26 -13 27 -86 27 -41 0 -75 -2 -75 -5z"/>
<path d="M362 183 c-68 -119 -67 -126 15 -104 39 11 123 60 123 72 0 4 -17 37
-39 74 l-38 67 -61 -109z"/>
<path d="M100 214 c0 -4 9 -22 21 -41 20 -31 109 -93 136 -93 10 0 83 118 83
134 0 3 -54 6 -120 6 -66 0 -120 -3 -120 -6z"/>
</g>
</svg>
