<?xml version="1.0" standalone="no"?>
<!DOCTYPE svg PUBLIC "-//W3C//DTD SVG 20010904//EN"
 "http://www.w3.org/TR/2001/REC-SVG-20010904/DTD/svg10.dtd">
<svg version="1.0" xmlns="http://www.w3.org/2000/svg"
 width="64.000000pt" height="64.000000pt" viewBox="0 0 64.000000 64.000000"
 preserveAspectRatio="xMidYMid meet">

<g transform="translate(0.000000,64.000000) scale(0.100000,-0.100000)"
fill="#000000" stroke="none">
<path d="M176 544 c-27 -32 -53 -63 -58 -68 -5 -6 -13 -5 -20 2 -22 22 -28 12
-28 -47 0 -91 -8 -120 -32 -113 -19 4 -19 3 -8 -19 8 -13 29 -48 49 -78 33
-50 34 -54 17 -66 -20 -15 -19 -16 97 -60 42 -16 48 -21 43 -41 l-6 -22 90 23
90 23 0 -25 c0 -21 8 -14 57 44 31 37 58 70 60 72 2 3 9 -1 15 -7 23 -23 28
-12 28 61 0 77 5 93 32 98 14 3 9 17 -29 78 -43 67 -45 75 -30 86 15 11 7 17
-64 45 -66 27 -80 36 -76 51 6 23 0 23 -93 -1 -41 -11 -76 -20 -77 -20 -1 0
-3 10 -5 22 -3 18 -10 13 -52 -38z m155 -19 c-1 -15 -24 -12 -29 3 -3 9 2 13
12 10 10 -1 17 -7 17 -13z m-141 -60 c0 -8 -7 -15 -15 -15 -8 0 -15 7 -15 15
0 8 7 15 15 15 8 0 15 -7 15 -15z m290 0 c0 -8 -7 -15 -15 -15 -8 0 -15 7 -15
15 0 8 7 15 15 15 8 0 15 -7 15 -15z m-90 -14 c138 -73 87 -281 -70 -281 -86
0 -150 65 -150 151 0 112 120 184 220 130z m-267 -142 c-17 -17 -37 -1 -22 17
8 10 15 12 23 4 7 -7 7 -13 -1 -21z m417 5 c0 -16 -16 -19 -25 -4 -8 13 4 32
16 25 5 -4 9 -13 9 -21z m-352 -142 c2 -7 -3 -12 -12 -12 -9 0 -16 7 -16 16 0
17 22 14 28 -4z m292 4 c0 -8 -4 -17 -9 -21 -12 -7 -24 12 -16 25 9 15 25 12
25 -4z m-144 -57 c10 -17 -13 -36 -27 -22 -12 12 -4 33 11 33 5 0 12 -5 16
-11z"/>
<path d="M264 425 c-82 -42 -85 -168 -4 -210 90 -47 190 20 177 118 -11 81
-101 129 -173 92z m120 -40 c20 -18 26 -34 26 -65 0 -56 -34 -90 -90 -90 -56
0 -90 34 -90 90 0 82 93 122 154 65z"/>
</g>
</svg>
