<?xml version="1.0" standalone="no"?>
<!DOCTYPE svg PUBLIC "-//W3C//DTD SVG 20010904//EN"
 "http://www.w3.org/TR/2001/REC-SVG-20010904/DTD/svg10.dtd">
<svg version="1.0" xmlns="http://www.w3.org/2000/svg"
 width="64.000000pt" height="64.000000pt" viewBox="0 0 64.000000 64.000000"
 preserveAspectRatio="xMidYMid meet">

<g transform="translate(0.000000,64.000000) scale(0.100000,-0.100000)"
fill="#000000" stroke="none">
<path d="M226 576 c-96 -36 -165 -127 -173 -228 -7 -79 8 -135 50 -190 68 -88
186 -128 294 -99 101 27 182 127 190 233 7 79 -8 135 -50 190 -52 68 -113 100
-200 105 -46 2 -86 -2 -111 -11z m213 -69 c22 -15 53 -46 68 -69 24 -36 28
-51 28 -118 0 -67 -4 -82 -28 -118 -15 -23 -46 -54 -69 -69 -36 -24 -51 -28
-118 -28 -67 0 -82 4 -118 28 -63 41 -95 97 -100 171 -6 97 36 173 121 216 61
31 158 25 216 -13z"/>
<path d="M321 432 c-5 -10 -21 -24 -35 -32 -29 -15 -39 -67 -11 -56 8 3 22 9
30 12 13 5 15 -7 15 -80 0 -79 2 -86 20 -86 19 0 20 7 20 130 0 108 -3 130
-15 130 -8 0 -19 -8 -24 -18z"/>
</g>
</svg>
